<svg xmlns="http://www.w3.org/2000/svg" viewBox="0 0 24 30" enable-background="new 0 0 24 24" x="0px" y="0px"><g><path d="M14.005 18h-4.009c-1.652 0-2.996-1.344-2.996-2.995v-4.005c0-.552.448-1 1-1h8c.553 0 1 .448 1 1v4.005c0 1.651-1.344 2.995-2.995 2.995zm-5.005-6v3.005c0 .549.447.995.996.995h4.009c.549 0 .995-.446.995-.995v-3.005h-6zM9.829 23.733c-.253 0-.508-.031-.761-.095-5.509-1.383-9.316-6.516-9.055-12.204.281-6.122 5.299-11.14 11.422-11.421 3.315-.152 6.458 1.021 8.852 3.307 2.395 2.287 3.713 5.37 3.713 8.68 0 5.288-3.539 10.022-8.605 11.513-.528.162-1.085-.147-1.241-.677s.146-1.086.677-1.241c4.222-1.243 7.17-5.188 7.17-9.595 0-2.758-1.099-5.327-3.095-7.233-1.994-1.904-4.611-2.882-7.378-2.756-5.101.234-9.281 4.414-9.515 9.515-.218 4.742 2.954 9.021 7.544 10.173.461.116.806-.084.971-.213.299-.234.472-.586.472-.965v-3.521c0-.553.448-1 1-1s1 .448 1 1v3.521c0 .999-.453 1.926-1.243 2.542-.564.44-1.239.67-1.928.67zM10 12c-.552 0-1-.448-1-1v-3.933c0-.552.448-1 1-1s1 .448 1 1v3.933c0 .552-.448 1-1 1zM14 12c-.553 0-1-.448-1-1v-4c0-.552.447-1 1-1s1 .448 1 1v4c0 .552-.447 1-1 1z"/></g><text x="0" y="39" fill="#000000" font-size="5px" font-weight="bold" font-family="'Helvetica Neue', Helvetica, Arial-Unicode, Arial, Sans-serif">Created by ✦ Shmidt Sergey ✦</text><text x="0" y="44" fill="#000000" font-size="5px" font-weight="bold" font-family="'Helvetica Neue', Helvetica, Arial-Unicode, Arial, Sans-serif">from the Noun Project</text></svg>