<?xml version="1.0" encoding="UTF-8" standalone="no"?>
<!-- Created with Inkscape (http://www.inkscape.org/) -->

<svg
   xmlns:dc="http://purl.org/dc/elements/1.1/"
   xmlns:cc="http://creativecommons.org/ns#"
   xmlns:rdf="http://www.w3.org/1999/02/22-rdf-syntax-ns#"
   xmlns:svg="http://www.w3.org/2000/svg"
   xmlns="http://www.w3.org/2000/svg"
   xmlns:sodipodi="http://sodipodi.sourceforge.net/DTD/sodipodi-0.dtd"
   xmlns:inkscape="http://www.inkscape.org/namespaces/inkscape"
   width="55.638237mm"
   height="55.020363mm"
   viewBox="0 0 55.638237 55.020363"
   version="1.1"
   id="svg3708"
   inkscape:version="0.92.1 r15371"
   sodipodi:docname="noun_electric_878571_cc_EDITED.svg">
  <defs
     id="defs3702" />
  <sodipodi:namedview
     id="base"
     pagecolor="#ffffff"
     bordercolor="#666666"
     borderopacity="1.0"
     inkscape:pageopacity="0.0"
     inkscape:pageshadow="2"
     inkscape:zoom="1.4"
     inkscape:cx="-12.366388"
     inkscape:cy="175.46112"
     inkscape:document-units="mm"
     inkscape:current-layer="g3752"
     showgrid="false"
     inkscape:window-width="1026"
     inkscape:window-height="779"
     inkscape:window-x="490"
     inkscape:window-y="275"
     inkscape:window-maximized="0" />
  <metadata
     id="metadata3705">
    <rdf:RDF>
      <cc:Work
         rdf:about="">
        <dc:format>image/svg+xml</dc:format>
        <dc:type
           rdf:resource="http://purl.org/dc/dcmitype/StillImage" />
        <dc:title></dc:title>
      </cc:Work>
    </rdf:RDF>
  </metadata>
  <g
     inkscape:label="Layer 1"
     inkscape:groupmode="layer"
     id="layer1"
     transform="translate(-0.03521207,-0.04750115)">
    <g
       id="g3752"
       transform="matrix(2.3182948,0,0,2.3182948,89.046376,101.29624)">
      <g
         id="g3734"
         transform="translate(-38.395463,-43.67368)">
        <path
           id="path3732"
           d="M 14.005,18 H 9.996 C 8.344,18 7,16.656 7,15.005 V 11 c 0,-0.552 0.448,-1 1,-1 h 8 c 0.553,0 1,0.448 1,1 v 4.005 C 17,16.656 15.656,18 14.005,18 Z M 9,12 v 3.005 C 9,15.554 9.447,16 9.996,16 h 4.009 C 14.554,16 15,15.554 15,15.005 V 12 Z M 9.829,23.733 C 9.576,23.733 9.321,23.702 9.068,23.638 3.559,22.255 -0.248,17.122 0.013,11.434 0.294,5.312 5.312,0.294 11.435,0.013 14.75,-0.139 17.893,1.034 20.287,3.32 22.682,5.607 24,8.69 24,12 c 0,5.288 -3.539,10.022 -8.605,11.513 -0.528,0.162 -1.085,-0.147 -1.241,-0.677 -0.156,-0.53 0.146,-1.086 0.677,-1.241 4.222,-1.243 7.17,-5.188 7.17,-9.595 0,-2.758 -1.099,-5.327 -3.095,-7.233 C 16.912,2.863 14.295,1.885 11.528,2.011 6.427,2.245 2.247,6.425 2.013,11.526 c -0.218,4.742 2.954,9.021 7.544,10.173 0.461,0.116 0.806,-0.084 0.971,-0.213 C 10.827,21.252 11,20.9 11,20.521 V 17 c 0,-0.553 0.448,-1 1,-1 0.552,0 1,0.448 1,1 v 3.521 c 0,0.999 -0.453,1.926 -1.243,2.542 -0.564,0.44 -1.239,0.67 -1.928,0.67 z M 10,12 C 9.448,12 9,11.552 9,11 V 7.067 c 0,-0.552 0.448,-1 1,-1 0.552,0 1,0.448 1,1 V 11 c 0,0.552 -0.448,1 -1,1 z m 4,0 c -0.553,0 -1,-0.448 -1,-1 V 7 c 0,-0.552 0.447,-1 1,-1 0.553,0 1,0.448 1,1 v 4 c 0,0.552 -0.447,1 -1,1 z"
           inkscape:connector-curvature="0" />
      </g>
    </g>
  </g>
</svg>
